PathFileType	4	(X/Y/Z)	Patient4_TMGait_0pt8_01_left_49.trc.trc
DataRate	CameraRate	NumFrames	NumMarkers	Units	OrigDataRate	OrigDataStartFrame	OrigNumFrames
88.050314465409	88.050314465409	4	33	mm	88.050314465409	18	       141
Frame#	Time	Sacral			L.Shoulder			Chest			R.Shoulder			Neck			R.ASIS			L.ASIS			R.Thigh.Superior			R.Thigh.Lateral			R.Thigh.Inferior			R.Patella			L.Thigh.Superior			L.Thigh.Lateral			L.Thigh.Inferior			L.Patella			L.Shank.Superior			L.Shank.Lateral			L.Shank.Inferior			R.Shank.Superior			R.Shank.Lateral			R.Shank.Inferior			R.Heel			R.Midfoot.Superior			R.Midfoot.Lateral			R.Toe			L.Heel			L.Midfoot.Lateral			L.Midfoot.Superior			L.Toe			L.Elbow			L.Wrist			R.Elbow			R.Wrist			
		X1	Y1	Z1	X2	Y2	Z2	X3	Y3	Z3	X4	Y4	Z4	X5	Y5	Z5	X6	Y6	Z6	X7	Y7	Z7	X8	Y8	Z8	X9	Y9	Z9	X10	Y10	Z10	X11	Y11	Z11	X12	Y12	Z12	X13	Y13	Z13	X14	Y14	Z14	X15	Y15	Z15	X16	Y16	Z16	X17	Y17	Z17	X18	Y18	Z18	X19	Y19	Z19	X20	Y20	Z20	X21	Y21	Z21	X22	Y22	Z22	X23	Y23	Z23	X24	Y24	Z24	X25	Y25	Z25	X26	Y26	Z26	X27	Y27	Z27	X28	Y28	Z28	X29	Y29	Z29	X30	Y30	Z30	X31	Y31	Z31	X32	Y32	Z32	X33	Y33	Z33	

18	54.783071428571	901.171389079279	1009.489792779401	556.173068715516	1056.888962456609	1428.284507387822	346.383244523549	1186.824634618908	1355.732026392777	485.935137937756	1141.991061466316	1436.754921628761	669.771333159217	1069.927312988979	1489.158231612682	501.702497989507	1135.918802963133	933.185379106167	636.494313122454	1086.055596984803	958.482559947216	366.382543918579	1125.206415950268	719.622616243186	611.155419714095	1019.979356004675	630.073532087437	679.112998027347	1072.945474173260	562.993510001914	596.606678776182	1052.048183724322	480.322095305794	603.453972114234	1166.487978304885	781.400676218351	397.968052610736	1124.343049012294	654.192346638086	315.010071425904	1227.854481226787	595.913824811829	377.868996276617	1259.547130565082	537.409251654062	370.697683938978	1250.082111238413	466.314612181306	358.007063722426	1201.133946014460	328.991718823627	306.130709777045	1302.243676496982	242.080358699908	358.282240775823	1013.500269280149	396.980186337420	611.603308874739	930.286710947846	302.584095727542	672.844507287002	960.689627879266	203.385662694288	609.595314301019	811.723862474759	45.375342529545	574.852665217202	981.494434708891	97.066962530837	619.295798928381	890.434729923163	37.843186255444	653.581826825048	1098.910964723635	41.637478977678	655.354887383967	1245.485042189657	51.170054931941	396.388425564032	1320.763105241758	63.917772028892	318.192995994595	1377.926268649868	153.261329307351	337.659768113557	1515.709777143263	143.970795084111	316.284157544859	908.288383612415	1100.543095860714	276.397643093668	870.458399603620	844.521798932208	306.203942730778	1319.699130666434	1150.863158052205	767.749265990124	1511.551949139273	1277.359346516836	670.589940469239	
19	54.794428571429	902.073262054430	1008.296827059950	554.401641924472	1056.764710755581	1427.423242755855	345.414327540600	1187.040320588243	1354.597158192908	484.604113667109	1142.317885011431	1435.533442547862	668.299337937408	1069.860067637901	1487.849461043916	500.848540831227	1136.559471076880	931.706709891281	634.651434842972	1086.854795930579	956.858859879491	364.516695892494	1123.116443970034	717.764538102613	609.941451065734	1016.793943478783	629.333047561445	678.138067593606	1068.824088879801	561.576963714443	595.671222723131	1047.078145200053	479.098679231494	602.555281345472	1166.581990685015	778.966815889607	396.596789521902	1122.748535178220	651.212738066775	314.802933774567	1226.407144179140	593.040097477833	376.963684225525	1257.552822615854	534.674204730255	370.289208095344	1248.446450055322	463.630070536668	358.046821390953	1199.691692509831	325.651356921225	308.342190029006	1302.034702834545	239.921377870197	360.033035292437	1007.608982924670	396.168177822712	610.980457909726	923.585795703309	302.716069431680	672.686755206552	952.759457309934	203.133533408215	609.506376863124	802.604044637668	45.753625424609	575.006232252579	972.454428212989	97.080345109705	619.403246182447	881.340331382152	37.995958605917	653.707421458991	1089.796613214155	41.398940473207	655.434339614021	1247.102680227829	49.407531306286	400.808297570679	1321.214987836714	61.599247370034	321.578529527981	1378.277941472574	151.090945505642	339.433053333225	1515.706222432661	141.970832034087	316.465903513170	903.611278242172	1102.470197799293	276.474013234321	861.864431707740	847.081697690060	307.352185416374	1326.805404389819	1155.228613275871	764.293092719169	1510.910273947975	1292.102739058151	667.194506698397	
20	54.805785714286	903.099814493843	1006.921733585904	552.333133143842	1056.741750930031	1426.382009816432	344.221879717401	1187.272066756417	1353.405976420710	483.177198249014	1142.426778639208	1434.198101075363	666.718751868305	1069.751316871701	1486.402013601940	499.796105427793	1137.288188505278	930.125204161842	632.760653462665	1087.937477706161	955.024994237471	362.558694895020	1121.461437700021	715.871069501008	608.672145659509	1014.149066762258	628.466210898072	677.052998773544	1065.409907673516	560.044139433052	594.683206926818	1042.811613694452	477.649289985848	601.569485293047	1167.201704245066	776.541720414787	394.912235109254	1121.396817761629	647.995057733847	314.826136610852	1225.481063115164	590.155542342123	375.940922698317	1255.850159675512	531.467720860667	369.964038315528	1246.680367146708	460.278805260137	358.330766719676	1197.001149985226	322.082448234715	310.875590460326	1299.805906575884	236.745251195254	362.152568689973	1002.301927401749	395.145556163402	610.264806343685	917.340206959896	302.799419229337	672.464807534550	945.075824176573	202.793525137190	609.381603003928	793.492565820631	46.229405195418	575.211659278091	963.451593927279	97.111311929270	619.529848553462	872.272038768570	38.189170390361	653.874520441004	1080.715949250026	41.127210124832	655.530825140071	1245.060660135006	47.438187778436	405.566611274876	1317.888925683033	58.550832766243	325.137137389844	1375.795077591183	147.370038949507	341.525013830387	1512.624552423661	136.978700958236	316.566893998448	899.732165487205	1103.945502852315	276.350544929300	854.186901549663	849.217021761939	308.062275673771	1332.974983286231	1159.237633775564	760.948275093906	1509.497645162269	1305.275360479873	664.115040803805	
21	54.817142857143	904.229652634473	1005.371814041344	549.968693043079	1056.837527761732	1425.162325884639	342.791998508450	1187.523866971464	1352.158031283109	481.649658880225	1142.326055545281	1432.750926364264	665.036396284429	1069.619381303905	1484.833263298935	498.530005577806	1138.096607434705	928.449648109029	630.842692484575	1089.307379335209	953.017333634947	360.522953298978	1120.277013598819	713.946814872579	607.389050255850	1012.042010898184	627.470780834086	675.848804377937	1062.726804069054	558.380266548955	593.663784055295	1039.257823803566	475.948647586882	600.503457893470	1168.297637598874	774.092915197374	392.953968051903	1120.295924182831	644.603612405063	315.020415182864	1225.005792500209	587.250875434872	374.887252900670	1254.371995941895	527.849477163154	369.843682988305	1244.837322226938	456.379622766852	358.881959052591	1193.400569043077	318.336932389437	313.532705144086	1295.950953894746	232.703784361579	364.568461960488	997.578100560383	393.907380099116	609.452583944017	911.543163752901	302.837425190133	672.166021613555	937.636578532609	202.371921809594	609.219931458839	784.383193100091	46.823834062559	575.483596766193	954.489328145128	97.159972144420	619.678051797072	863.225604475357	38.424256043158	654.086302880818	1071.671360291869	40.831893049794	655.642349512358	1239.886388041276	45.315686713312	410.321537176176	1311.467682522683	54.958685931379	328.669574121097	1371.054216195441	142.322696464583	343.944234971955	1507.115447874504	129.338028057468	316.854752902742	896.664111054472	1104.916273215209	275.975416186762	847.487703894681	850.876641962235	308.314214022022	1338.205978902854	1162.784641691780	757.756518071647	1507.424945795436	1316.851411168171	661.353303670360	
